<svg width="64" height="50" viewBox="0 0 64 50" fill="none" xmlns="http://www.w3.org/2000/svg">
<g filter="url(#filter0_d_47_57)">
<path fill-rule="evenodd" clip-rule="evenodd" d="M4 0H60V3.23207H4V0ZM4 6.46406H60V9.69614H4V6.46406ZM4 12.9199H60V16.1601H4V12.9199ZM4 19.384H60V22.616H4V19.384ZM4 25.848H60V29.0801H4V25.848ZM4 32.3039H60V35.5359H4V32.3039ZM4 38.7679H60V42H4V38.7679Z" fill="#BD3D44"/>
<path fill-rule="evenodd" clip-rule="evenodd" d="M4 3.23193H60V6.46392H4V3.23193ZM4 9.69591H60V12.9198H4V9.69591ZM4 16.1518H60V19.3838H4V16.1518ZM4 22.6159H60V25.8479H4V22.6159ZM4 29.08H60V32.3119H4V29.08ZM4 35.5358H60V38.7679H4V35.5358Z" fill="white"/>
<path fill-rule="evenodd" clip-rule="evenodd" d="M4 0H26.3988V22.616H4V0Z" fill="#192F5D"/>
<path fill-rule="evenodd" clip-rule="evenodd" d="M5.86517 0.967773L6.0724 1.86176H6.72868L6.19902 2.41144L6.40054 3.31374L5.86517 2.75592L5.33556 3.30551L5.53702 2.41144L5.00171 1.86176H5.66947L5.86517 0.967773ZM9.6012 0.967773L9.80266 1.86176H10.4647L9.92928 2.41144L10.1308 3.31374L9.6012 2.75592L9.06582 3.30551L9.26729 2.41144L8.73768 1.86176H9.39396L9.6012 0.967773ZM13.3315 0.967773L13.5387 1.86185H14.1892L13.6596 2.41152L13.861 3.31382L13.3257 2.75601L12.7961 3.3056L12.9976 2.41152L12.4622 1.86185H13.1242L13.3315 0.967773ZM17.0675 0.967773L17.2689 1.86185H17.931L17.3956 2.41152L17.6028 3.31382L17.0674 2.75601L16.5321 3.3056L16.7394 2.41152L16.204 1.86185H16.8603L17.0675 0.967773ZM20.7978 0.967773L21.005 1.86185H21.6612L21.1316 2.41152L21.3331 3.31382L20.7977 2.75601L20.2681 3.3056L20.4696 2.41152L19.94 1.86185H20.5962L20.7978 0.967773ZM24.5337 0.967773L24.7352 1.86185H25.3973L24.8619 2.41152L25.0691 3.31382L24.5337 2.75601L23.9984 3.3056L24.2056 2.41152L23.6703 1.86185H24.3323L24.5337 0.967773ZM7.73607 3.23166L7.93753 4.12591H8.59952L8.06415 4.67541L8.2599 5.56966L7.74178 5.01999L7.20646 5.56957L7.39638 4.6755L6.87832 4.12582H7.5346L7.73607 3.23166ZM11.4663 3.23166L11.6736 4.12591H12.3298L11.7944 4.67541L12.0017 5.56966L11.4663 5.01999L10.931 5.56957L11.1382 4.6755L10.6028 4.12582H11.2648L11.4663 3.23166ZM15.2024 3.23166L15.4038 4.12591H16.0658L15.5304 4.67541L15.7319 5.56966L15.2023 5.01999L14.667 5.56957L14.8685 4.67559L14.3388 4.12591H14.9951L15.2024 3.23166ZM18.9326 3.23166L19.1399 4.12591H19.7961L19.2607 4.67541L19.4679 5.56966L18.9326 5.01999L18.403 5.56957L18.6045 4.6755L18.0691 4.12582H18.7369L18.9326 3.23166ZM22.6686 3.23166L22.8701 4.12591H23.5321L22.9967 4.67541L23.1982 5.56966L22.6686 5.01999L22.1332 5.56957L22.3348 4.6755L21.8051 4.12582H22.4614L22.6686 3.23166ZM5.86517 5.48776L6.0724 6.39829H6.72868L6.19902 6.94787L6.40054 7.84204L5.86517 7.28422L5.33556 7.84204L5.53702 6.93965L5.00171 6.39015H5.66947L5.86517 5.48776ZM9.6012 5.48776L9.80266 6.38989H10.4647L9.92928 6.93947L10.1308 7.83372L9.6012 7.27582L9.06582 7.83364L9.26729 6.93134L8.73768 6.38175H9.39396L9.6012 5.48776ZM13.3315 5.48776L13.5387 6.39006H14.1892L13.6596 6.93965L13.861 7.8339L13.3257 7.276L12.7961 7.83381L12.9976 6.93151L12.4622 6.38192H13.1242L13.3315 5.48776ZM17.0675 5.48776L17.2689 6.39006H17.931L17.3956 6.93965L17.6028 7.8339L17.0674 7.276L16.5321 7.83381L16.7394 6.93151L16.204 6.38192H16.8603L17.0675 5.48776ZM20.7978 5.48776L21.005 6.39006H21.6612L21.1316 6.93956L21.3331 7.83381L20.7977 7.27591L20.2681 7.83372L20.4696 6.93142L19.94 6.38184H20.5962L20.7978 5.48776ZM24.5337 5.48776L24.7352 6.39006H25.3973L24.8619 6.93965L25.0691 7.8339L24.5337 7.276L23.9984 7.83381L24.2056 6.93151L23.6703 6.38192H24.3323L24.5337 5.48776ZM7.73607 7.75174L7.93753 8.6459H8.59952L8.06415 9.1954L8.26567 10.0978L7.73607 9.53997L7.20069 10.0896L7.40216 9.19549L6.87255 8.6459H7.52889L7.73607 7.75174ZM11.4663 7.75174L11.6736 8.6459H12.3298L11.7944 9.1954L12.0017 10.0978L11.4663 9.53997L10.931 10.0896L11.1382 9.19549L10.6028 8.6459H11.2648L11.4663 7.75174ZM15.2024 7.75174L15.4038 8.6459H16.0658L15.5304 9.1954L15.7319 10.0978L15.2023 9.53997L14.667 10.0896L14.8685 9.19549L14.3388 8.6459H14.9951L15.2024 7.75174ZM18.9326 7.75174L19.1399 8.6459H19.7961L19.2665 9.1954L19.4679 10.0978L18.9326 9.53997L18.403 10.0896L18.6045 9.19549L18.0691 8.6459H18.7369L18.9326 7.75174ZM22.6686 7.75174L22.8701 8.6459H23.5321L22.9967 9.1954L23.1982 10.0978L22.6686 9.53997L22.1332 10.0896L22.3348 9.19549L21.8051 8.6459H22.4614L22.6686 7.75174ZM5.86517 10.0158L6.0724 10.91H6.72868L6.19902 11.4595L6.40054 12.3618L5.86517 11.804L5.33556 12.3536L5.53702 11.4595L5.00171 10.91H5.66947L5.86517 10.0158ZM9.6012 10.0158L9.80266 10.91H10.4647L9.92928 11.4595L10.1308 12.3537L9.6012 11.804L9.06582 12.3536L9.26729 11.4595L8.73768 10.91H9.39396L9.6012 10.0158ZM13.3315 10.0158L13.5387 10.91H14.1892L13.6596 11.4595L13.861 12.3618L13.3257 11.804L12.7961 12.3536L12.9976 11.4595L12.4622 10.91H13.1242L13.3315 10.0158ZM17.0675 10.0158L17.2689 10.91H17.931L17.3956 11.4595L17.6028 12.3618L17.0674 11.804L16.5321 12.3536L16.7394 11.4595L16.204 10.91H16.8603L17.0675 10.0158ZM20.7978 10.0158L21.005 10.91H21.6612L21.1316 11.4595L21.3331 12.3618L20.7977 11.804L20.2681 12.3536L20.4696 11.4595L19.94 10.91H20.5962L20.7978 10.0158ZM24.5337 10.0158L24.7352 10.91H25.3973L24.8619 11.4595L25.0691 12.3618L24.5337 11.804L23.9984 12.3536L24.2056 11.4595L23.6703 10.91H24.3323L24.5337 10.0158ZM7.73607 12.2799L7.93753 13.174H8.59952L8.06415 13.7235L8.26567 14.6178L7.73607 14.06L7.20069 14.6178L7.40216 13.7154L6.87255 13.1658H7.52889L7.73607 12.2799ZM11.4663 12.2799L11.6736 13.174H12.3298L11.7944 13.7235L12.0017 14.6178L11.4663 14.06L10.931 14.6178L11.1382 13.7154L10.6028 13.1658H11.2648L11.4663 12.2799ZM15.2024 12.2799L15.4038 13.174H16.0658L15.5304 13.7235L15.7319 14.6178L15.2023 14.06L14.667 14.6178L14.8685 13.7154L14.3388 13.1658H14.9951L15.2024 12.2799ZM18.9326 12.2799L19.1399 13.174H19.7961L19.2665 13.7235L19.4679 14.6178L18.9326 14.06L18.403 14.6178L18.6045 13.7154L18.0691 13.1658H18.7369L18.9326 12.2799ZM22.6686 12.2799L22.8701 13.174H23.5321L22.9967 13.7235L23.1982 14.6178L22.6686 14.06L22.1332 14.6178L22.3348 13.7154L21.8051 13.1658H22.4614L22.6686 12.2799ZM5.86517 14.5357L6.0724 15.4381H6.72868L6.19902 15.9876L6.40054 16.8736L5.86517 16.324L5.33556 16.8735L5.53702 15.9794L5.00171 15.4299H5.66947L5.86517 14.5357ZM9.6012 14.5357L9.80266 15.4381H10.4647L9.92928 15.9876L10.1366 16.8736L9.60114 16.324L9.06582 16.8735L9.27306 15.9794L8.73768 15.4299H9.39396L9.6012 14.5357ZM13.3315 14.5357L13.5387 15.4381H14.1892L13.6596 15.9876L13.861 16.8736L13.3257 16.324L12.7961 16.8735L12.9976 15.9794L12.4622 15.4299H13.1242L13.3315 14.5357ZM17.0675 14.5357L17.2689 15.4381H17.931L17.3956 15.9876L17.6028 16.8736L17.0674 16.324L16.5321 16.8735L16.7394 15.9794L16.204 15.4299H16.8603L17.0675 14.5357ZM20.7978 14.5357L21.005 15.4381H21.6612L21.1316 15.9876L21.3331 16.8736L20.7977 16.324L20.2681 16.8735L20.4696 15.9794L19.94 15.4299H20.5962L20.7978 14.5357ZM24.5337 14.5357L24.7352 15.4381H25.3973L24.8619 15.9876L25.0691 16.8736L24.5337 16.324L23.9984 16.8735L24.2056 15.9794L23.6703 15.4299H24.3323L24.5337 14.5357ZM7.73607 16.7998L7.93753 17.6939H8.59952L8.06415 18.2435L8.26567 19.1459L7.73607 18.5881L7.20069 19.1376L7.40216 18.2435L6.87255 17.6939H7.52889L7.73607 16.7998ZM11.4663 16.7998L11.6736 17.6939H12.3298L11.7944 18.2435L12.0017 19.1459L11.4663 18.5881L10.931 19.1376L11.1382 18.2435L10.6028 17.6939H11.2648L11.4663 16.7998ZM15.2024 16.7998L15.4038 17.6939H16.0658L15.5304 18.2435L15.7319 19.1459L15.2023 18.5881L14.667 19.1376L14.8685 18.2435L14.3388 17.6939H14.9951L15.2024 16.7998ZM18.9326 16.7998L19.1399 17.6939H19.7961L19.2665 18.2435L19.4679 19.1459L18.9326 18.5881L18.403 19.1376L18.6045 18.2435L18.0691 17.6939H18.7369L18.9326 16.7998ZM22.6686 16.7998L22.8701 17.6939H23.5321L22.9967 18.2435L23.1982 19.1459L22.6686 18.5881L22.1332 19.1376L22.3348 18.2435L21.8051 17.6939H22.4614L22.6686 16.7998ZM5.86517 19.0638L6.0724 19.958H6.72868L6.19902 20.5076L6.40054 21.4017L5.86517 20.8521L5.33556 21.4016L5.53702 20.4993L5.00171 19.9498H5.66947L5.86517 19.0638ZM9.6012 19.0638L9.80266 19.958H10.4647L9.92928 20.5076L10.1366 21.4017L9.60114 20.8521L9.06582 21.4016L9.27306 20.4993L8.73768 19.9498H9.39396L9.6012 19.0638ZM13.3315 19.0638L13.5387 19.958H14.1892L13.6711 20.5076L13.8726 21.4017L13.3372 20.8521L12.8076 21.4016L13.0091 20.4993L12.4737 19.9498H13.1357L13.3315 19.0638ZM17.0675 19.0638L17.2689 19.958H17.931L17.3956 20.5076L17.6028 21.4017L17.0674 20.8521L16.5321 21.4016L16.7394 20.4993L16.204 19.9498H16.8603L17.0675 19.0638ZM20.7978 19.0638L21.005 19.958H21.6612L21.1316 20.5076L21.3331 21.4017L20.7977 20.8521L20.2681 21.4016L20.4696 20.4993L19.94 19.9498H20.5962L20.7978 19.0638ZM24.5337 19.0638L24.7352 19.958H25.3973L24.8619 20.5076L25.0691 21.4017L24.5337 20.8521L23.9984 21.4016L24.2056 20.4993L23.6703 19.9498H24.3323L24.5337 19.0638Z" fill="white"/>
</g>
<defs>
<filter id="filter0_d_47_57" x="0" y="0" width="64" height="50" filterUnits="userSpaceOnUse" color-interpolation-filters="sRGB">
<feFlood flood-opacity="0" result="BackgroundImageFix"/>
<feColorMatrix in="SourceAlpha" type="matrix" values="0 0 0 0 0 0 0 0 0 0 0 0 0 0 0 0 0 0 127 0" result="hardAlpha"/>
<feOffset dy="4"/>
<feGaussianBlur stdDeviation="2"/>
<feComposite in2="hardAlpha" operator="out"/>
<feColorMatrix type="matrix" values="0 0 0 0 0 0 0 0 0 0 0 0 0 0 0 0 0 0 0.25 0"/>
<feBlend mode="normal" in2="BackgroundImageFix" result="effect1_dropShadow_47_57"/>
<feBlend mode="normal" in="SourceGraphic" in2="effect1_dropShadow_47_57" result="shape"/>
</filter>
</defs>
</svg>
