<svg width="56" height="42" viewBox="0 0 56 42" fill="none" xmlns="http://www.w3.org/2000/svg">
<path fill-rule="evenodd" clip-rule="evenodd" d="M0 0H56V42H0V0Z" fill="#229E45"/>
<path fill-rule="evenodd" clip-rule="evenodd" d="M28.1225 38.1501L54.5037 21.0263L27.965 3.8501L1.49625 21.0613L28.1225 38.1501Z" fill="#F8E509"/>
<path fill-rule="evenodd" clip-rule="evenodd" d="M39.62 21C39.62 27.1512 34.6238 32.1387 28.455 32.1387C26.2506 32.1353 24.0967 31.4783 22.2656 30.2509C20.4346 29.0235 19.0085 27.2808 18.1677 25.2431C17.3269 23.2053 17.1092 20.964 17.542 18.8025C17.9748 16.6411 19.0387 14.6564 20.5993 13.0995C22.1599 11.5426 24.147 10.4833 26.3095 10.0556C28.472 9.62789 30.7128 9.85091 32.7486 10.6965C34.7843 11.5421 36.5237 12.9722 37.7468 14.8062C38.9698 16.6402 39.6217 18.7956 39.62 21Z" fill="#2B49A3"/>
<path fill-rule="evenodd" clip-rule="evenodd" d="M24.7887 27.6762L24.4387 27.475L24.0887 27.65L24.1675 27.2562L23.8875 26.9587L24.2812 26.915L24.4737 26.565L24.64 26.9325L25.025 27.0025L24.7362 27.265M32.2612 29.5662L31.92 29.365L31.57 29.54L31.64 29.1462L31.3687 28.8575L31.7625 28.8137L31.9462 28.455L32.1212 28.8225L32.5062 28.8925L32.2087 29.1637M29.0412 26.5387L28.7437 26.3637L28.4375 26.5212L28.5075 26.18L28.2625 25.9262L28.6125 25.8912L28.77 25.5762L28.91 25.9L29.2512 25.9612L28.9887 26.1975M36.6012 25.4537L36.3037 25.2787L35.9975 25.4362L36.0675 25.095L35.8312 24.85L36.1725 24.815L36.33 24.5087L36.47 24.8237L36.8025 24.885L36.5487 25.1125M28.91 23.1875L28.56 22.995L28.21 23.17L28.28 22.7675L28.0087 22.4787L28.4025 22.435L28.5862 22.0762L28.7612 22.4437L29.1462 22.5137L28.8487 22.7937M19.6962 19.7312L19.3462 19.5387L18.9962 19.7137L19.0837 19.3112L18.795 19.0225L19.1975 18.9787L19.3725 18.62L19.5475 18.9875L19.9325 19.0575L19.6437 19.3287M20.8075 24.3337L20.4575 24.1325L20.1075 24.3075L20.1862 23.9137L19.9062 23.625L20.3 23.5725L20.4837 23.2225L20.6587 23.59L21.0437 23.66L20.755 23.9312M32.305 18.0425L31.99 17.8675L31.675 18.025L31.745 17.675L31.5 17.4125L31.85 17.3687L32.0162 17.0537L32.165 17.3862L32.515 17.4475L32.2525 17.6837M31.6662 21.035L31.43 20.895L31.1762 21.0175L31.2287 20.7375L31.0362 20.5362L31.3162 20.5012L31.4475 20.2562L31.5612 20.5187L31.8237 20.5625L31.6312 20.755M19.1887 25.165L18.9525 25.0337L18.7162 25.1475L18.7687 24.885L18.585 24.6925L18.8475 24.6575L18.97 24.4212L19.0837 24.6662L19.3462 24.7187L19.145 24.8937M36.6625 26.2325L36.47 26.1362L36.2775 26.2237L36.3212 26.0225L36.1725 25.8825L36.3825 25.8562L36.4875 25.6812L36.575 25.8562L36.7937 25.9L36.6275 26.0312" fill="#FFFFEF"/>
<path fill-rule="evenodd" clip-rule="evenodd" d="M19.1887 25.1651L18.9525 25.0339L18.7162 25.1476L18.7687 24.8851L18.585 24.6926L18.8475 24.6576L18.97 24.4214L19.0837 24.6664L19.3462 24.7189L19.145 24.8939" fill="#FFFFEF"/>
<path fill-rule="evenodd" clip-rule="evenodd" d="M19.1887 25.165L18.9525 25.0337L18.7162 25.1475L18.7687 24.885L18.585 24.6925L18.8475 24.6575L18.97 24.4212L19.0837 24.6662L19.3462 24.7187L19.145 24.8937M22.8462 25.1562L22.6187 25.0337L22.3825 25.1475L22.435 24.885L22.2512 24.6925L22.5137 24.6575L22.6362 24.4212L22.75 24.6662L23.0125 24.71L22.8112 24.8937M22.3912 26.3812L22.1637 26.25L21.9275 26.3725L21.98 26.11L21.7962 25.9087L22.0587 25.8737L22.1812 25.6375L22.295 25.8825L22.5575 25.935L22.3562 26.11M30.0037 24.1675L29.7762 24.0275L29.5312 24.15L29.5837 23.8875L29.4087 23.6862L29.6712 23.66L29.7937 23.4237L29.8987 23.6687L30.1612 23.7125L29.9687 23.8962M27.7725 24.1587L27.5362 24.0275L27.3 24.15L27.3525 23.8875L27.1775 23.6862L27.44 23.66L27.5625 23.415L27.6675 23.6687L27.93 23.7125L27.7375 23.8962M21.7175 23.3887L21.5687 23.3012L21.42 23.3712L21.455 23.205L21.3412 23.0825L21.5075 23.065L21.5775 22.9162L21.6475 23.0737L21.8137 23.1L21.6912 23.2137M36.3737 27.1862L36.1462 27.055L35.91 27.1775L35.9625 26.915L35.7787 26.7137L36.0412 26.6787L36.1637 26.4425L36.2775 26.6875L36.54 26.74L36.3387 26.915M34.5187 27.44L34.3262 27.3175L34.125 27.4225L34.1687 27.195L34.02 27.0375L34.2387 27.0112L34.3437 26.81L34.4312 27.02L34.65 27.055L34.4837 27.2125M35.3937 27.4137L35.2187 27.3087L35.035 27.3962L35.07 27.195L34.93 27.0462L35.1312 27.02L35.2275 26.845L35.315 27.02L35.5162 27.0637L35.3675 27.2037M37.9137 25.2087L37.7387 25.1212L37.5637 25.2087L37.6075 25.0075L37.4675 24.8587L37.6687 24.8325L37.7562 24.6575L37.8437 24.8412L38.0275 24.8762L37.8875 25.0162M34.4925 28.6737L34.2737 28.5512L34.0375 28.6562L34.09 28.4112L33.915 28.2362L34.1775 28.21L34.2912 27.9912L34.3962 28.2187L34.6587 28.2625L34.4575 28.4287M34.51 29.6712L34.3 29.5487L34.09 29.6625L34.1425 29.4175L33.9762 29.2425L34.2125 29.2075L34.3175 28.9887L34.4137 29.2162L34.65 29.26L34.475 29.435M32.8125 27.4137L32.6462 27.3087L32.4712 27.3962L32.5062 27.2037L32.375 27.055L32.5675 27.0375L32.655 26.8625L32.7425 27.0375L32.935 27.0725L32.795 27.2125M31.2375 27.4137L31.0625 27.3087L30.8875 27.3962L30.9312 27.2037L30.7912 27.055L30.9925 27.0375L31.08 26.8625L31.1675 27.0375L31.3512 27.0725L31.2112 27.2125M28.5512 25.06L28.3762 24.9637L28.2012 25.0512L28.245 24.85L28.105 24.71L28.2975 24.6837L28.385 24.5087L28.4725 24.6837L28.665 24.7275L28.525 24.8587M28.8487 29.8462L28.7087 29.7675L28.5512 29.8462L28.5862 29.6712L28.4725 29.5487L28.6387 29.5312L28.7175 29.3825L28.7875 29.54L28.9537 29.5662L28.8312 29.68M24.7887 22.1025L24.4387 21.9012L24.0887 22.0762L24.1675 21.6825L23.8875 21.3937L24.2812 21.3412L24.4737 20.9912L24.64 21.3587L25.025 21.4287L24.7362 21.7" fill="#FFFFEF"/>
<path fill-rule="evenodd" clip-rule="evenodd" d="M38.885 25.0073C39.1018 24.4449 39.2715 23.8654 39.3925 23.2748C33.46 18.0686 26.8537 15.3998 18.5062 15.9511C18.2035 16.5369 17.9546 17.149 17.7625 17.7798C27.65 16.8348 34.9125 21.2098 38.885 25.0073Z" fill="white"/>
<path d="M36.225 22.0849L36.4262 22.1987C36.3962 22.2581 36.387 22.3259 36.4 22.3912C36.4205 22.4545 36.4643 22.5076 36.5225 22.5399C36.5837 22.5837 36.645 22.6099 36.6975 22.6012C36.75 22.6012 36.785 22.5749 36.8112 22.5399C36.8265 22.5167 36.8327 22.4887 36.8287 22.4612C36.8216 22.4288 36.8066 22.3988 36.785 22.3737C36.7675 22.3474 36.7237 22.2862 36.6537 22.2162C36.5818 22.1419 36.5279 22.0521 36.4962 21.9537C36.4744 21.8792 36.4801 21.7993 36.5122 21.7286C36.5443 21.658 36.6008 21.6012 36.6712 21.5687C36.7349 21.5421 36.8052 21.536 36.8725 21.5512C36.9548 21.5701 37.0322 21.6058 37.1 21.6562C37.2225 21.7437 37.3012 21.8312 37.3275 21.9362C37.3396 21.9853 37.3412 22.0364 37.3321 22.0861C37.3231 22.1359 37.3036 22.1832 37.275 22.2249L37.065 22.0937C37.0912 22.0412 37.1 21.9887 37.0825 21.9449C37.0737 21.9012 37.0387 21.8574 36.9775 21.8224C36.9326 21.7863 36.8776 21.7649 36.82 21.7612C36.8041 21.7606 36.7884 21.7644 36.7746 21.7721C36.7607 21.7798 36.7492 21.7912 36.7412 21.8049C36.7237 21.8312 36.7237 21.8574 36.7325 21.8924C36.7412 21.9274 36.785 21.9974 36.8725 22.0849C36.96 22.1724 37.0125 22.2512 37.0475 22.3037C37.0787 22.361 37.0929 22.4261 37.0882 22.4913C37.0836 22.5564 37.0603 22.6188 37.0212 22.6712C36.9803 22.7306 36.9224 22.7764 36.855 22.8024C36.7894 22.8326 36.716 22.8418 36.645 22.8287C36.5662 22.8112 36.4875 22.7762 36.4 22.7149C36.2687 22.6274 36.19 22.5312 36.1637 22.4262C36.1352 22.3071 36.1541 22.1816 36.2162 22.0762L36.225 22.0849ZM35.21 21.4199L35.4287 21.5337C35.4016 21.5941 35.3955 21.6618 35.4112 21.7262C35.4336 21.7862 35.4772 21.836 35.5337 21.8662C35.6037 21.9099 35.6562 21.9274 35.7087 21.9187C35.7612 21.9187 35.7962 21.8924 35.8225 21.8487C35.8358 21.8278 35.8419 21.8033 35.84 21.7787C35.84 21.7524 35.8225 21.7174 35.7962 21.6912C35.7514 21.637 35.7047 21.5845 35.6562 21.5337C35.56 21.4374 35.4987 21.3587 35.4812 21.2887C35.4669 21.2436 35.4627 21.196 35.4687 21.1491C35.4747 21.1023 35.491 21.0573 35.5162 21.0174C35.5495 20.9634 35.5983 20.9207 35.6562 20.8949C35.7164 20.8672 35.7834 20.858 35.8487 20.8687C35.9297 20.8823 36.007 20.912 36.0762 20.9562C36.2075 21.0437 36.2862 21.1312 36.3125 21.2274C36.3284 21.2766 36.3336 21.3286 36.3275 21.38C36.3215 21.4313 36.3044 21.4808 36.2775 21.5249L36.0587 21.4024C36.085 21.3412 36.0937 21.2974 36.0762 21.2537C36.0587 21.2099 36.0237 21.1662 35.9625 21.1312C35.9141 21.0964 35.8558 21.078 35.7962 21.0787C35.7819 21.0796 35.768 21.0841 35.7558 21.0918C35.7436 21.0994 35.7334 21.1099 35.7262 21.1224C35.7087 21.1487 35.7087 21.1749 35.7175 21.2099C35.7262 21.2449 35.7787 21.3149 35.8662 21.4024C35.9537 21.4899 36.015 21.5599 36.0412 21.6124C36.0763 21.6673 36.0949 21.731 36.0949 21.7962C36.0949 21.8613 36.0763 21.925 36.0412 21.9799C36.0035 22.0409 35.9488 22.0896 35.8837 22.1199C35.8181 22.1501 35.7448 22.1593 35.6737 22.1462C35.5837 22.1309 35.4975 22.0982 35.42 22.0499C35.3069 21.9896 35.2197 21.89 35.175 21.7699C35.1412 21.6531 35.1537 21.5277 35.21 21.4199ZM33.9675 21.0874L34.6062 20.0374L35.3762 20.5187L35.2712 20.6937L34.7112 20.3437L34.5712 20.5799L35.0962 20.9037L34.9825 21.0787L34.4575 20.7549L34.2825 21.0437L34.8687 21.3937L34.7637 21.5687L33.9762 21.0874H33.9675ZM32.1562 19.5999L32.2525 19.4249L32.725 19.6612L32.5062 20.0987C32.4362 20.1162 32.3487 20.1249 32.2437 20.1162C32.1429 20.105 32.045 20.0754 31.955 20.0287C31.8491 19.9771 31.7586 19.8986 31.6925 19.8012C31.6323 19.7106 31.6017 19.6036 31.605 19.4949C31.6094 19.3818 31.6393 19.2711 31.6925 19.1712C31.7451 19.0659 31.8233 18.9756 31.92 18.9087C32.0125 18.8447 32.1226 18.8111 32.235 18.8124C32.3225 18.8124 32.41 18.8387 32.515 18.8999C32.655 18.9612 32.7425 19.0487 32.7862 19.1449C32.8318 19.2405 32.8411 19.3493 32.8125 19.4512L32.5762 19.3812C32.5907 19.3225 32.5845 19.2607 32.5587 19.2062C32.5325 19.1537 32.4887 19.1187 32.4187 19.0837C32.378 19.0604 32.3327 19.046 32.2859 19.0415C32.2392 19.0369 32.192 19.0424 32.1475 19.0574C32.06 19.0837 31.9812 19.1624 31.92 19.2849C31.8587 19.4074 31.8325 19.5212 31.8587 19.6174C31.8708 19.6631 31.8928 19.7055 31.923 19.7418C31.9532 19.7781 31.991 19.8073 32.0337 19.8274C32.0775 19.8537 32.13 19.8712 32.1825 19.8712C32.2347 19.8791 32.2878 19.8791 32.34 19.8712L32.41 19.7312L32.1562 19.5999ZM24.2637 17.6487L24.4387 16.4237L24.8062 16.4849L24.9025 17.3424L25.2437 16.5549L25.6112 16.6074L25.4362 17.8149L25.2 17.7799L25.3487 16.8262L24.9637 17.7449L24.7275 17.7099L24.6312 16.7212L24.4912 17.6837L24.2637 17.6487ZM23.03 17.4999L23.1437 16.2749L24.045 16.3624L24.0275 16.5724L23.3712 16.5112L23.345 16.7737L23.9575 16.8349L23.9312 17.0449L23.3187 16.9837L23.2925 17.3162L23.975 17.3774L23.9575 17.5874L23.03 17.4999Z" fill="#309E3A"/>
<path d="M18.9437 16.7389C18.9437 16.6076 18.97 16.5114 19.005 16.4239C19.0357 16.3617 19.0771 16.3054 19.1275 16.2576C19.1724 16.2124 19.226 16.1767 19.285 16.1526C19.3725 16.1264 19.46 16.1089 19.5475 16.1089C19.7312 16.1089 19.8712 16.1789 19.985 16.2839C20.0391 16.3508 20.0794 16.4278 20.1035 16.5104C20.1275 16.593 20.1348 16.6796 20.125 16.7651C20.125 16.9576 20.0637 17.1151 19.95 17.2289C19.8915 17.2829 19.8224 17.3241 19.747 17.3497C19.6717 17.3753 19.5918 17.3848 19.5125 17.3776C19.4343 17.3784 19.3567 17.3633 19.2845 17.3332C19.2123 17.3032 19.147 17.2587 19.0925 17.2026C18.9836 17.0738 18.9301 16.907 18.9437 16.7389Z" fill="#309E3A"/>
<path d="M19.1975 16.739C19.1975 16.8703 19.2237 16.9753 19.285 17.054C19.3462 17.124 19.425 17.1678 19.53 17.1678C19.5754 17.1709 19.621 17.1639 19.6634 17.1473C19.7057 17.1306 19.7439 17.1048 19.775 17.0715C19.8362 17.0015 19.8625 16.8965 19.8712 16.7478C19.8712 16.6078 19.8537 16.5028 19.7837 16.4328C19.7552 16.3975 19.7193 16.369 19.6784 16.3493C19.6376 16.3296 19.5928 16.3193 19.5475 16.319C19.5015 16.3175 19.4557 16.3262 19.4133 16.3443C19.371 16.3625 19.3332 16.3897 19.3025 16.424C19.2325 16.494 19.2062 16.599 19.1975 16.739Z" fill="#F7FFFF"/>
<path d="M20.3875 17.3686L20.405 16.1436H20.93C21.0612 16.1436 21.1487 16.1611 21.21 16.1873C21.2712 16.2048 21.315 16.2486 21.35 16.3011C21.385 16.3536 21.4025 16.4236 21.4025 16.5023C21.4032 16.5865 21.3719 16.6678 21.315 16.7298C21.2503 16.7904 21.1671 16.8274 21.0787 16.8348L21.21 16.9398C21.245 16.9748 21.2887 17.0448 21.3412 17.1411L21.49 17.3861H21.1925L21.0175 17.1061L20.895 16.9311C20.8738 16.907 20.8466 16.8889 20.8162 16.8786C20.7764 16.8669 20.7352 16.8611 20.6937 16.8611H20.6412V17.3686H20.3875Z" fill="#309E3A"/>
<path d="M20.65 16.6685H20.825C20.9475 16.6685 21.0262 16.6685 21.0525 16.651C21.0787 16.651 21.105 16.6248 21.1225 16.6073C21.14 16.5898 21.1487 16.546 21.1487 16.5198C21.1487 16.4673 21.14 16.4323 21.1137 16.4148C21.0962 16.3885 21.0612 16.371 21.0262 16.3623H20.8512L20.65 16.3535V16.6598V16.6685Z" fill="white"/>
<path d="M21.7875 16.2051L22.2425 16.2313C22.3388 16.2313 22.4175 16.2401 22.47 16.2576C22.5381 16.2823 22.5985 16.3245 22.645 16.3801C22.6954 16.4413 22.7313 16.513 22.75 16.5901C22.7763 16.6688 22.785 16.7651 22.7763 16.8788C22.7762 16.9681 22.7614 17.0568 22.7325 17.1413C22.6975 17.2288 22.645 17.2988 22.5838 17.3513C22.5328 17.3933 22.4729 17.4232 22.4088 17.4388C22.3563 17.4563 22.2775 17.4563 22.19 17.4563L21.7263 17.4301L21.7875 16.2051Z" fill="#309E3A"/>
<path d="M22.0238 16.4238L21.98 17.2376H22.3125C22.3563 17.2376 22.3913 17.2201 22.4175 17.1938C22.4438 17.1676 22.47 17.1326 22.4875 17.0801C22.505 17.0276 22.5225 16.9488 22.5225 16.8526L22.5138 16.6338C22.5013 16.5877 22.4772 16.5455 22.4438 16.5113C22.4147 16.4821 22.3785 16.461 22.3388 16.4501C22.2726 16.4353 22.2052 16.4266 22.1375 16.4238H22.0238Z" fill="white"/>
<path d="M27.79 18.3926L28.0788 17.2026L28.4638 17.2901L28.7438 17.3776C28.805 17.4126 28.8575 17.4651 28.8838 17.5439C28.9188 17.6139 28.9188 17.6926 28.9013 17.7889C28.8838 17.8589 28.8575 17.9201 28.8138 17.9639C28.7817 18.0023 28.7415 18.0332 28.6962 18.0544C28.6508 18.0755 28.6013 18.0865 28.5513 18.0864C28.49 18.0864 28.4025 18.0689 28.2888 18.0426L28.14 17.9989L28.035 18.4539L27.79 18.3926Z" fill="#309E3A"/>
<path d="M28.2625 17.4653L28.1925 17.7978L28.3238 17.8328C28.4113 17.8503 28.4813 17.8678 28.5163 17.8591C28.5503 17.8544 28.582 17.8392 28.6071 17.8157C28.6322 17.7922 28.6493 17.7615 28.6563 17.7278C28.6563 17.6841 28.6563 17.6491 28.6388 17.6141C28.6196 17.5785 28.5886 17.5507 28.5513 17.5353L28.385 17.4916L28.2713 17.4653H28.2625Z" fill="white"/>
<path d="M28.9275 18.7336L29.3388 17.5786L29.82 17.7536C29.9513 17.7974 30.03 17.8411 30.0825 17.8761C30.1263 17.9199 30.1613 17.9636 30.17 18.0336C30.1788 18.1036 30.1875 18.1649 30.17 18.2349C30.135 18.3224 30.0825 18.3836 30.0125 18.4274C29.9425 18.4624 29.855 18.4711 29.75 18.4536C29.785 18.4974 29.82 18.5411 29.8375 18.5936L29.9075 18.8299L29.96 19.1011L29.6888 19.0049L29.6013 18.6899C29.5854 18.6186 29.5649 18.5485 29.54 18.4799C29.5284 18.4526 29.5104 18.4286 29.4875 18.4099C29.47 18.3836 29.435 18.3661 29.3738 18.3486L29.33 18.3311L29.155 18.8211L28.9275 18.7336Z" fill="#309E3A"/>
<path d="M29.4 18.1471L29.5663 18.2084C29.68 18.2521 29.75 18.2696 29.785 18.2696C29.8113 18.2696 29.8375 18.2696 29.8638 18.2434C29.89 18.2259 29.9075 18.1996 29.9163 18.1646C29.9338 18.1296 29.9338 18.0946 29.9163 18.0596C29.9033 18.0257 29.8784 17.9977 29.8463 17.9809L29.6713 17.9196L29.4963 17.8584L29.3913 18.1471H29.4Z" fill="white"/>
<path d="M30.3625 18.6898C30.3926 18.5873 30.4432 18.4921 30.5113 18.4098C30.5555 18.357 30.6088 18.3125 30.6688 18.2785C30.723 18.2479 30.7822 18.2272 30.8438 18.2173C30.9313 18.2173 31.0188 18.2173 31.115 18.2523C31.1932 18.2716 31.2664 18.3074 31.3298 18.3572C31.3931 18.4069 31.4452 18.4696 31.4825 18.541C31.5525 18.681 31.5525 18.8473 31.5 19.0398C31.4567 19.2052 31.3498 19.3467 31.2025 19.4335C31.0713 19.5123 30.9138 19.521 30.7475 19.4685C30.6695 19.4487 30.5965 19.4127 30.5332 19.363C30.47 19.3133 30.4178 19.2509 30.38 19.1798C30.345 19.1033 30.3254 19.0206 30.3224 18.9365C30.3194 18.8524 30.333 18.7686 30.3625 18.6898Z" fill="#309E3A"/>
<path d="M30.6075 18.76C30.5725 18.8913 30.5638 19.005 30.6075 19.0925C30.6513 19.18 30.7125 19.2325 30.8088 19.2675C30.8963 19.2938 30.9838 19.285 31.0713 19.2325C31.1588 19.1888 31.2113 19.0925 31.255 18.9525C31.2988 18.8213 31.2988 18.7163 31.255 18.6288C31.2377 18.5873 31.2115 18.5501 31.1783 18.5198C31.145 18.4896 31.1055 18.467 31.0625 18.4538C31.0195 18.4389 30.9737 18.4336 30.9284 18.4381C30.8831 18.4426 30.8393 18.4569 30.8 18.48C30.7125 18.5325 30.6513 18.62 30.6075 18.76Z" fill="white"/>
<path d="M32.7513 20.396L33.3113 19.311L33.775 19.5473C33.8624 19.5892 33.9423 19.6454 34.0113 19.7135C34.055 19.7573 34.0813 19.8098 34.0813 19.8798C34.0813 19.9498 34.0813 20.011 34.0463 20.0723C34.0126 20.151 33.9499 20.2136 33.8713 20.2473C33.7838 20.2648 33.6963 20.2648 33.6 20.2298C33.635 20.2823 33.6525 20.3348 33.67 20.3785C33.6875 20.431 33.6963 20.5098 33.705 20.6235L33.7225 20.9035L33.46 20.7723L33.425 20.4485C33.4209 20.3751 33.4121 20.3021 33.3988 20.2298C33.3928 20.1971 33.3776 20.1667 33.355 20.1423L33.25 20.081L33.2063 20.0548L32.97 20.5098L32.7513 20.396Z" fill="#309E3A"/>
<path d="M33.2937 19.8796L33.46 19.9671C33.565 20.0196 33.635 20.0546 33.6612 20.0546C33.6875 20.0546 33.7225 20.0546 33.7487 20.0371C33.775 20.0284 33.7925 20.0021 33.81 19.9671C33.8275 19.9321 33.8362 19.8971 33.8275 19.8621C33.8167 19.8273 33.7953 19.7967 33.7662 19.7746C33.715 19.7432 33.6625 19.714 33.6087 19.6871L33.4337 19.5996L33.2937 19.8796Z" fill="white"/>
<path d="M37.2837 22.6363C37.3404 22.5463 37.4148 22.4689 37.5025 22.4088C37.5614 22.3711 37.6266 22.3444 37.695 22.33C37.7585 22.3171 37.824 22.3171 37.8875 22.33C37.975 22.3475 38.0537 22.3825 38.1325 22.435C38.2006 22.4775 38.2591 22.5336 38.3043 22.5999C38.3495 22.6662 38.3804 22.7411 38.395 22.82C38.4212 22.9688 38.3775 23.135 38.2725 23.3013C38.1847 23.4459 38.0431 23.5497 37.8787 23.59C37.8004 23.607 37.7194 23.6071 37.641 23.5905C37.5625 23.574 37.4885 23.541 37.4238 23.4938C37.3557 23.4514 37.2971 23.3952 37.2519 23.3289C37.2067 23.2626 37.1759 23.1877 37.1613 23.1088C37.135 22.9513 37.1787 22.7938 37.2837 22.6363Z" fill="#309E3A"/>
<path d="M37.5025 22.7762C37.415 22.8899 37.3888 22.9949 37.4063 23.0912C37.4127 23.1355 37.4285 23.178 37.4527 23.2157C37.4768 23.2534 37.5087 23.2855 37.5463 23.3099C37.6338 23.3712 37.7213 23.3887 37.8088 23.3624C37.8963 23.3362 37.9838 23.2749 38.0625 23.1524C38.1413 23.0299 38.1763 22.9249 38.1588 22.8374C38.15 22.7499 38.0975 22.6712 38.0188 22.6099C37.94 22.5487 37.8438 22.5399 37.7563 22.5662C37.6688 22.5837 37.5813 22.6537 37.4938 22.7762H37.5025Z" fill="white"/>
<path d="M26.4075 17.8936L26.6088 17.0361L27.2388 17.1849L27.2125 17.3249L26.7488 17.2199L26.705 17.4124L27.1338 17.5086L27.0988 17.6574L26.67 17.5524L26.6175 17.7886L27.0988 17.9024L27.0638 18.0424L26.4075 17.8936Z" fill="#309E3A"/>
</svg>
